<?xml version="1.0" encoding="UTF-8" standalone="no"?>
<!DOCTYPE svg PUBLIC "-//W3C//DTD SVG 1.1//EN"
 "http://www.w3.org/Graphics/SVG/1.1/DTD/svg11.dtd">
<!-- Generated by graphviz version 12.2.1 (0)
 -->
<!-- Pages: 1 -->
<svg width="1800pt" height="749pt"
 viewBox="0.00 0.00 432.00 179.73" xmlns="http://www.w3.org/2000/svg" xmlns:xlink="http://www.w3.org/1999/xlink">
<g id="graph0" class="graph" transform="scale(3.03018 3.03018) rotate(0) translate(4 243.13)">
<polygon fill="white" stroke="none" points="-4,4 -4,-243.13 590.02,-243.13 590.02,4 -4,4"/>
<g id="clust1" class="cluster">
<title>clusterobs_idx (1082)</title>
<path fill="none" stroke="black" d="M215.01,-8C215.01,-8 367.01,-8 367.01,-8 373.01,-8 379.01,-14 379.01,-20 379.01,-20 379.01,-117.82 379.01,-117.82 379.01,-123.82 373.01,-129.82 367.01,-129.82 367.01,-129.82 215.01,-129.82 215.01,-129.82 209.01,-129.82 203.01,-123.82 203.01,-117.82 203.01,-117.82 203.01,-20 203.01,-20 203.01,-14 209.01,-8 215.01,-8"/>
<text text-anchor="middle" x="329.76" y="-15.2" font-family="Times,serif" font-size="14.00">obs_idx (1082)</text>
</g>
<!-- β4 -->
<g id="node1" class="node">
<title>β4</title>
<ellipse fill="none" stroke="black" cx="41.01" cy="-198.48" rx="41.01" ry="40.66"/>
<text text-anchor="middle" x="41.01" y="-209.93" font-family="Times,serif" font-size="14.00">β4</text>
<text text-anchor="middle" x="41.01" y="-193.43" font-family="Times,serif" font-size="14.00">~</text>
<text text-anchor="middle" x="41.01" y="-176.93" font-family="Times,serif" font-size="14.00">Normal</text>
</g>
<!-- likelihood -->
<g id="node7" class="node">
<title>likelihood</title>
<ellipse fill="lightgrey" stroke="black" cx="291.01" cy="-81.16" rx="79.73" ry="40.66"/>
<text text-anchor="middle" x="291.01" y="-92.61" font-family="Times,serif" font-size="14.00">likelihood</text>
<text text-anchor="middle" x="291.01" y="-76.11" font-family="Times,serif" font-size="14.00">~</text>
<text text-anchor="middle" x="291.01" y="-59.61" font-family="Times,serif" font-size="14.00">TruncatedNormal</text>
</g>
<!-- β4&#45;&gt;likelihood -->
<g id="edge4" class="edge">
<title>β4&#45;&gt;likelihood</title>
<path fill="none" stroke="black" d="M71.43,-170.95C77.67,-166.21 84.36,-161.59 91.01,-157.82 128.94,-136.3 174.16,-118.6 212.01,-105.74"/>
<polygon fill="black" stroke="black" points="212.66,-109.22 221.04,-102.73 210.44,-102.58 212.66,-109.22"/>
</g>
<!-- β1 -->
<g id="node2" class="node">
<title>β1</title>
<ellipse fill="none" stroke="black" cx="141.01" cy="-198.48" rx="41.01" ry="40.66"/>
<text text-anchor="middle" x="141.01" y="-209.93" font-family="Times,serif" font-size="14.00">β1</text>
<text text-anchor="middle" x="141.01" y="-193.43" font-family="Times,serif" font-size="14.00">~</text>
<text text-anchor="middle" x="141.01" y="-176.93" font-family="Times,serif" font-size="14.00">Normal</text>
</g>
<!-- β1&#45;&gt;likelihood -->
<g id="edge6" class="edge">
<title>β1&#45;&gt;likelihood</title>
<path fill="none" stroke="black" d="M172.67,-172.19C178.74,-167.39 185.06,-162.43 191.01,-157.82 206.26,-146 222.94,-133.3 238.22,-121.75"/>
<polygon fill="black" stroke="black" points="239.96,-124.82 245.83,-116 235.74,-119.23 239.96,-124.82"/>
</g>
<!-- α -->
<g id="node3" class="node">
<title>α</title>
<ellipse fill="none" stroke="black" cx="241.01" cy="-198.48" rx="41.01" ry="40.66"/>
<text text-anchor="middle" x="241.01" y="-209.93" font-family="Times,serif" font-size="14.00">α</text>
<text text-anchor="middle" x="241.01" y="-193.43" font-family="Times,serif" font-size="14.00">~</text>
<text text-anchor="middle" x="241.01" y="-176.93" font-family="Times,serif" font-size="14.00">Normal</text>
</g>
<!-- α&#45;&gt;likelihood -->
<g id="edge3" class="edge">
<title>α&#45;&gt;likelihood</title>
<path fill="none" stroke="black" d="M256.97,-160.67C261,-151.38 265.39,-141.25 269.64,-131.45"/>
<polygon fill="black" stroke="black" points="272.8,-132.95 273.57,-122.39 266.38,-130.17 272.8,-132.95"/>
</g>
<!-- β3 -->
<g id="node4" class="node">
<title>β3</title>
<ellipse fill="none" stroke="black" cx="341.01" cy="-198.48" rx="41.01" ry="40.66"/>
<text text-anchor="middle" x="341.01" y="-209.93" font-family="Times,serif" font-size="14.00">β3</text>
<text text-anchor="middle" x="341.01" y="-193.43" font-family="Times,serif" font-size="14.00">~</text>
<text text-anchor="middle" x="341.01" y="-176.93" font-family="Times,serif" font-size="14.00">Normal</text>
</g>
<!-- β3&#45;&gt;likelihood -->
<g id="edge1" class="edge">
<title>β3&#45;&gt;likelihood</title>
<path fill="none" stroke="black" d="M325.05,-160.67C321.02,-151.38 316.63,-141.25 312.38,-131.45"/>
<polygon fill="black" stroke="black" points="315.64,-130.17 308.45,-122.39 309.22,-132.95 315.64,-130.17"/>
</g>
<!-- σ -->
<g id="node5" class="node">
<title>σ</title>
<ellipse fill="none" stroke="black" cx="443.01" cy="-198.48" rx="42.6" ry="40.66"/>
<text text-anchor="middle" x="443.01" y="-209.93" font-family="Times,serif" font-size="14.00">σ</text>
<text text-anchor="middle" x="443.01" y="-193.43" font-family="Times,serif" font-size="14.00">~</text>
<text text-anchor="middle" x="443.01" y="-176.93" font-family="Times,serif" font-size="14.00">Gamma</text>
</g>
<!-- σ&#45;&gt;likelihood -->
<g id="edge2" class="edge">
<title>σ&#45;&gt;likelihood</title>
<path fill="none" stroke="black" d="M410.02,-172.28C403.71,-167.47 397.16,-162.49 391.01,-157.82 375.65,-146.15 358.94,-133.49 343.66,-121.93"/>
<polygon fill="black" stroke="black" points="346.14,-119.42 336.06,-116.18 341.92,-125 346.14,-119.42"/>
</g>
<!-- β2 -->
<g id="node6" class="node">
<title>β2</title>
<ellipse fill="none" stroke="black" cx="545.01" cy="-198.48" rx="41.01" ry="40.66"/>
<text text-anchor="middle" x="545.01" y="-209.93" font-family="Times,serif" font-size="14.00">β2</text>
<text text-anchor="middle" x="545.01" y="-193.43" font-family="Times,serif" font-size="14.00">~</text>
<text text-anchor="middle" x="545.01" y="-176.93" font-family="Times,serif" font-size="14.00">Normal</text>
</g>
<!-- β2&#45;&gt;likelihood -->
<g id="edge5" class="edge">
<title>β2&#45;&gt;likelihood</title>
<path fill="none" stroke="black" d="M514.61,-170.91C508.38,-166.18 501.67,-161.57 495.01,-157.82 456.05,-135.88 409.5,-118.05 370.72,-105.23"/>
<polygon fill="black" stroke="black" points="372.03,-101.97 361.44,-102.21 369.86,-108.63 372.03,-101.97"/>
</g>
</g>
</svg>
